<?xml version="1.0" standalone="no"?>
<!DOCTYPE svg PUBLIC "-//W3C//DTD SVG 20010904//EN"
 "http://www.w3.org/TR/2001/REC-SVG-20010904/DTD/svg10.dtd">
<svg version="1.0" xmlns="http://www.w3.org/2000/svg"
 width="1201.000000pt" height="1201.000000pt" viewBox="0 0 1201.000000 1201.000000"
 preserveAspectRatio="xMidYMid meet">
<metadata>
Created by potrace 1.14, written by Peter Selinger 2001-2017
</metadata>
<g transform="translate(0.000000,1201.000000) scale(0.100000,-0.100000)"
fill="#000000" stroke="none">
<path d="M5689 12006 c-2 -2 -51 -6 -109 -10 -113 -7 -127 -8 -325 -32 -758
-88 -1583 -364 -2245 -752 -483 -282 -862 -573 -1245 -957 -241 -241 -385
-406 -571 -655 -134 -179 -404 -589 -404 -613 0 -2 -23 -44 -52 -93 -137 -237
-332 -682 -428 -974 -105 -319 -166 -561 -219 -866 -27 -154 -36 -214 -46
-299 -2 -16 -6 -50 -9 -75 -7 -53 -15 -147 -26 -285 -8 -101 -5 -790 4 -855 4
-30 22 -193 31 -286 3 -35 6 -55 36 -239 155 -975 588 -1950 1213 -2735 203
-255 468 -538 701 -748 310 -279 697 -555 1095 -781 55 -32 415 -210 500 -248
187 -85 543 -212 770 -276 231 -66 520 -130 690 -153 25 -3 53 -8 64 -10 10
-2 44 -6 75 -10 31 -3 58 -8 61 -9 3 -2 41 -6 85 -10 44 -4 94 -9 110 -11 200
-20 774 -27 990 -11 152 11 364 35 465 52 47 8 105 17 130 20 25 4 99 18 165
31 655 136 1235 355 1799 678 151 87 179 105 366 229 437 291 868 677 1226
1097 418 492 777 1088 999 1661 20 52 41 103 46 114 42 95 158 471 208 677 61
251 117 566 136 773 4 39 8 81 11 94 19 125 27 780 11 996 -8 110 -33 348 -42
395 -2 14 -7 45 -10 70 -15 110 -49 289 -86 454 -43 187 -44 191 -109 406
-253 832 -682 1592 -1273 2255 -83 94 -345 357 -433 436 -33 29 -78 70 -100
89 -72 65 -248 206 -364 292 -626 464 -1331 799 -2090 994 -180 46 -471 104
-620 124 -47 6 -96 13 -110 15 -14 2 -77 9 -140 15 -63 6 -133 13 -155 16 -45
6 -770 15 -776 10z"/>
</g>
</svg>
