<svg version="1.1" xmlns="http://www.w3.org/2000/svg" viewBox="0 0 484.24609375 361.51171875" width="968.4921875" height="723.0234375">
  <!-- svg-source:excalidraw -->
  
  <defs>
    <style>
      @font-face {
        font-family: "Virgil";
        src: url("https://excalidraw.com/Virgil.woff2");
      }
      @font-face {
        font-family: "Cascadia";
        src: url("https://excalidraw.com/Cascadia.woff2");
      }
    </style>
  </defs>
  <g stroke-linecap="round" transform="translate(102.38527545540637 10) rotate(0 118.22138313284222 170.755859375)"><path d="M1.5 -1.22 C50.55 3.45, 100.94 0.32, 234.82 -0.71 M-0.8 -0.1 C88.42 -0.52, 175.98 -0.22, 237.06 -0.5 M235.35 0.43 C237.41 124.28, 238.33 246.9, 236.31 342.49 M236.53 0.48 C235.47 97.09, 235.83 193.1, 236.39 341.66 M236.09 341.17 C155.09 339.52, 70.99 338.28, 0.83 340.37 M236.52 342.28 C153.37 342.42, 70.16 342.34, -0.54 341.29 M1.29 341.4 C0.61 211.54, 0.02 80.42, -0.12 0.61 M-0.55 341.45 C1.87 245.47, 1.54 150.58, -0.22 -0.48" stroke="#000000" stroke-width="1" fill="none"></path></g><g stroke-linecap="round"><g transform="translate(102.34672357824525 181.22836594282654) rotate(0 118.24759583883315 0.4790584276104255)"><path d="M-0.45 0.36 C38.65 0.3, 195.63 -0.14, 234.84 -0.08 M1.52 -0.5 C40.94 -0.37, 197.68 1.58, 236.94 1.46" stroke="#000000" stroke-width="1" fill="none"></path></g></g><g stroke-linecap="round"><g transform="translate(102.48046875 96.79015450962117) rotate(0 117.4166693253755 -0.23616883196868343)"><path d="M-0.97 0.18 C38.36 0.25, 196.18 -0.66, 235.81 -0.72 M0.72 -0.77 C39.87 -0.49, 195.33 0.01, 234.6 0.3" stroke="#000000" stroke-width="1" fill="none"></path></g></g><g stroke-linecap="round"><g transform="translate(102.41466856874604 268.78880230624793) rotate(0 117.05727660491465 -0.3924725245714171)"><path d="M-0.71 0.21 C38.38 -0.04, 195.56 -1.16, 234.83 -0.97 M1.11 -0.73 C40.06 -0.92, 195.2 -0.11, 234.07 -0.05" stroke="#000000" stroke-width="1" fill="none"></path></g></g><g transform="translate(120.6875 31.13671875) rotate(0 53 22)"><text x="0" y="35" font-family="Cascadia, Segoe UI Emoji" font-size="36px" fill="#000000" text-anchor="start" style="white-space: pre;" direction="ltr">"a\0"</text></g><g transform="translate(123.3203125 117.2421875) rotate(0 74.5 22)"><text x="0" y="35" font-family="Cascadia, Segoe UI Emoji" font-size="36px" fill="#000000" text-anchor="start" style="white-space: pre;" direction="ltr">"tho\0"</text></g><g transform="translate(123.3203125 202.5390625) rotate(0 53 22)"><text x="0" y="35" font-family="Cascadia, Segoe UI Emoji" font-size="36px" fill="#000000" text-anchor="start" style="white-space: pre;" direction="ltr">"y\0"</text></g><g transform="translate(123.3203125 287.625) rotate(0 42.5 22)"><text x="0" y="35" font-family="Cascadia, Segoe UI Emoji" font-size="36px" fill="#000000" text-anchor="start" style="white-space: pre;" direction="ltr">NULL</text></g><g stroke-linecap="round" transform="translate(93.8515625 91.703125) rotate(0 7.396484375 6.841796875)"><path d="M6.79 -0.22 C8.29 -0.29, 10.28 0.61, 11.62 1.45 C12.97 2.3, 14.38 3.38, 14.86 4.86 C15.33 6.35, 15.4 9.09, 14.48 10.38 C13.56 11.67, 10.85 12.19, 9.34 12.62 C7.82 13.06, 6.7 13.46, 5.37 12.99 C4.04 12.51, 2.21 10.99, 1.34 9.78 C0.47 8.57, -0.04 7.22, 0.18 5.73 C0.39 4.25, 1.25 1.65, 2.64 0.86 C4.03 0.06, 7.58 0.97, 8.51 0.94 C9.44 0.92, 8.31 0.72, 8.2 0.7 M7.92 -0.72 C9.01 -0.97, 10.3 0.41, 11.6 1.34 C12.9 2.27, 15.45 3.28, 15.73 4.86 C16.01 6.43, 14.6 9.2, 13.29 10.77 C11.98 12.34, 9.48 13.98, 7.88 14.27 C6.29 14.56, 4.88 13.4, 3.72 12.51 C2.56 11.63, 1.59 10.21, 0.92 8.96 C0.25 7.71, -0.45 6.5, -0.3 5.02 C-0.15 3.54, 0.63 0.88, 1.8 0.08 C2.96 -0.72, 5.84 0.03, 6.69 0.22 C7.53 0.42, 6.75 0.95, 6.86 1.26" stroke="none" stroke-width="0" fill="#000000"></path><path d="M10.95 1.1 C12.3 1.6, 12.62 2.99, 13.37 4.1 C14.12 5.22, 15.6 6.33, 15.45 7.78 C15.31 9.23, 13.98 11.66, 12.51 12.8 C11.05 13.95, 8.3 14.79, 6.67 14.66 C5.05 14.53, 3.91 13.05, 2.77 12.05 C1.63 11.06, 0.21 10.3, -0.18 8.69 C-0.56 7.08, -0.39 3.9, 0.47 2.41 C1.33 0.92, 3.2 -0.03, 5 -0.25 C6.79 -0.48, 10 0.56, 11.24 1.05 C12.48 1.54, 12.46 2.47, 12.43 2.69 M9.37 1.29 C11.07 1.75, 12.88 2.73, 13.64 3.82 C14.41 4.92, 13.99 6.52, 13.94 7.87 C13.89 9.22, 14.41 10.75, 13.35 11.93 C12.29 13.11, 9.01 14.94, 7.6 14.94 C6.19 14.94, 6.13 12.71, 4.89 11.94 C3.64 11.17, 0.92 11.76, 0.14 10.32 C-0.64 8.88, -0.51 5.04, 0.18 3.31 C0.88 1.59, 2.74 0.38, 4.32 -0.03 C5.9 -0.44, 8.74 0.57, 9.64 0.86 C10.53 1.14, 10.07 1.9, 9.7 1.68" stroke="#000000" stroke-width="1" fill="none"></path></g><g stroke-linecap="round" transform="translate(93.8515625 174.8359375) rotate(0 7.396484375 6.841796875)"><path d="M5.59 -0.35 C7.06 -0.94, 9.06 -0.32, 10.4 0.31 C11.75 0.94, 12.87 2.03, 13.65 3.43 C14.44 4.82, 15.31 7.14, 15.1 8.69 C14.89 10.25, 13.78 11.75, 12.41 12.75 C11.03 13.74, 8.53 14.89, 6.85 14.66 C5.17 14.42, 3.49 12.38, 2.31 11.34 C1.12 10.31, -0.15 9.59, -0.26 8.45 C-0.38 7.32, 0.45 5.91, 1.62 4.55 C2.78 3.2, 5.47 1.05, 6.72 0.31 C7.98 -0.44, 9.17 -0.1, 9.17 0.09 M10.78 -0.52 C12.55 -0.17, 13.94 2.28, 14.5 3.89 C15.06 5.49, 14.38 7.75, 14.14 9.11 C13.89 10.48, 14.14 11.07, 13.03 12.07 C11.91 13.06, 9.31 15.25, 7.46 15.1 C5.61 14.95, 3.2 12.44, 1.95 11.19 C0.69 9.93, 0.18 8.81, -0.06 7.56 C-0.3 6.31, -0.25 4.67, 0.52 3.69 C1.29 2.7, 3.04 2.03, 4.55 1.64 C6.05 1.26, 8.61 1.72, 9.55 1.36 C10.48 1.01, 10.23 -0.48, 10.14 -0.49" stroke="none" stroke-width="0" fill="#000000"></path><path d="M8.26 -0.17 C9.81 -0.03, 11.54 1, 12.78 2.25 C14.02 3.51, 15.45 5.96, 15.7 7.35 C15.95 8.74, 15.24 9.63, 14.28 10.59 C13.31 11.54, 11.73 12.66, 9.9 13.07 C8.07 13.48, 4.76 13.73, 3.27 13.04 C1.79 12.35, 1.55 10.14, 1 8.91 C0.45 7.69, -0.55 7.05, -0.03 5.69 C0.49 4.32, 2.69 1.78, 4.13 0.7 C5.57 -0.38, 7.79 -0.65, 8.61 -0.78 C9.44 -0.92, 8.97 -0.38, 9.09 -0.13 M6.6 -0.63 C7.94 -0.92, 8.77 -0.23, 10.13 0.89 C11.48 2.02, 14 4.57, 14.72 6.13 C15.45 7.69, 15.04 9.06, 14.48 10.23 C13.92 11.4, 12.61 12.54, 11.36 13.17 C10.11 13.79, 8.44 14.38, 6.95 13.99 C5.46 13.61, 3.39 12.13, 2.44 10.86 C1.49 9.6, 1.18 7.65, 1.27 6.42 C1.35 5.19, 2.08 4.5, 2.95 3.49 C3.83 2.49, 5.89 0.91, 6.5 0.39 C7.12 -0.14, 6.69 0.14, 6.64 0.32" stroke="#000000" stroke-width="1" fill="none"></path></g><g transform="translate(10 83.87890625) rotate(0 35.5 12)"><text x="0" y="20" font-family="Cascadia, Segoe UI Emoji" font-size="20px" fill="#000000" text-anchor="start" style="white-space: pre;" direction="ltr">result</text></g><g transform="translate(10 158.73046875) rotate(0 35.5 24)"><text x="0" y="20" font-family="Cascadia, Segoe UI Emoji" font-size="20px" fill="#000000" text-anchor="start" style="white-space: pre;" direction="ltr">result</text><text x="0" y="44" font-family="Cascadia, Segoe UI Emoji" font-size="20px" fill="#000000" text-anchor="start" style="white-space: pre;" direction="ltr">+ word</text></g><g transform="translate(338.984375 95.3828125) rotate(0 12.244140625 45.13671875)" stroke="none"><path fill="#000000" d="M 0.18,-2.44 Q 0.18,-2.44 0.65,-2.45 1.13,-2.46 2.39,-2.21 3.65,-1.97 4.72,-1.45 5.80,-0.94 7.08,0.00 8.36,0.96 7.50,0.17 6.65,-0.61 7.82,-0.27 8.98,0.07 9.98,0.60 10.97,1.12 11.93,1.80 12.89,2.48 13.89,3.20 14.88,3.93 15.69,4.71 16.50,5.50 17.26,6.35 18.02,7.19 18.68,8.06 19.35,8.94 19.97,9.86 20.60,10.79 21.16,11.99 21.72,13.18 22.21,14.27 22.70,15.36 23.24,16.34 23.78,17.33 24.36,18.32 24.93,19.31 25.44,20.31 25.96,21.31 26.37,22.46 26.78,23.62 27.06,24.80 27.33,25.98 27.52,27.14 27.71,28.30 27.86,29.48 28.02,30.66 28.18,31.84 28.34,33.03 28.35,34.20 28.36,35.37 28.36,36.65 28.36,37.93 28.36,39.03 28.36,40.12 28.26,41.30 28.15,42.48 28.01,43.76 27.86,45.03 27.76,46.33 27.65,47.63 27.48,48.86 27.31,50.09 26.93,51.32 26.55,52.55 26.34,53.60 26.12,54.65 25.90,55.85 25.68,57.05 25.49,58.11 25.30,59.16 25.11,60.54 24.91,61.92 24.68,63.15 24.46,64.39 24.21,65.60 23.96,66.82 23.70,67.90 23.43,68.99 22.99,70.21 22.56,71.43 22.19,72.50 21.81,73.57 21.09,74.94 20.36,76.30 19.68,77.32 18.99,78.35 18.25,79.41 17.50,80.47 16.87,81.47 16.23,82.48 15.52,83.36 14.81,84.23 14.02,84.99 13.22,85.74 12.47,86.52 11.72,87.29 10.97,88.16 10.23,89.02 9.44,89.80 8.64,90.59 7.77,91.29 6.90,91.99 5.78,92.41 4.67,92.82 5.81,92.29 6.96,91.76 5.76,92.48 4.57,93.20 2.59,93.71 0.60,94.21 -0.02,94.11 -0.65,94.01 -1.22,93.71 -1.78,93.41 -2.22,92.94 -2.66,92.48 -2.92,91.90 -3.19,91.32 -3.26,90.69 -3.33,90.05 -3.19,89.43 -3.06,88.81 -2.73,88.26 -2.40,87.72 -1.91,87.30 -1.43,86.89 -0.83,86.65 -0.24,86.42 0.39,86.38 1.02,86.35 1.64,86.52 2.25,86.69 2.78,87.05 3.31,87.41 3.70,87.91 4.08,88.42 4.28,89.03 4.49,89.63 4.49,90.27 4.49,90.91 4.28,91.51 4.08,92.12 3.69,92.62 3.31,93.13 2.78,93.49 2.25,93.85 1.64,94.02 1.02,94.19 0.39,94.15 -0.24,94.12 -0.83,93.88 -1.43,93.65 -1.91,93.23 -2.40,92.82 -2.73,92.27 -3.06,91.73 -3.19,91.10 -3.33,90.48 -3.26,89.85 -3.19,89.21 -2.92,88.63 -2.66,88.05 -2.22,87.59 -1.78,87.13 -1.21,86.83 -0.65,86.53 -0.02,86.43 0.60,86.33 0.60,86.33 0.60,86.33 0.80,86.47 1.00,86.61 2.36,85.82 3.71,85.04 2.42,86.07 1.13,87.10 1.86,86.25 2.59,85.40 3.41,84.70 4.23,84.01 5.14,82.94 6.04,81.88 7.02,80.91 8.00,79.95 8.88,79.00 9.77,78.06 10.44,76.96 11.11,75.86 11.87,74.79 12.64,73.72 13.31,72.80 13.98,71.87 14.48,70.72 14.98,69.56 15.38,68.38 15.78,67.19 16.01,66.13 16.25,65.08 16.55,63.72 16.85,62.37 17.09,61.24 17.33,60.11 17.45,58.91 17.57,57.71 17.77,56.67 17.97,55.62 18.20,54.38 18.43,53.15 18.65,52.10 18.88,51.06 19.25,49.85 19.62,48.64 19.79,47.45 19.95,46.26 20.07,45.05 20.18,43.83 20.32,42.67 20.46,41.51 20.53,40.44 20.61,39.36 20.61,38.13 20.61,36.90 20.61,35.77 20.61,34.64 20.56,33.41 20.52,32.18 20.34,30.98 20.17,29.77 20.00,28.68 19.84,27.58 19.63,26.42 19.43,25.27 18.92,24.31 18.41,23.35 17.93,22.40 17.45,21.45 16.88,20.41 16.32,19.38 15.84,18.30 15.36,17.22 14.95,16.22 14.53,15.21 13.96,14.19 13.38,13.18 12.70,12.22 12.02,11.26 11.31,10.38 10.60,9.49 9.72,8.71 8.84,7.94 8.08,7.16 7.32,6.39 6.04,5.80 4.75,5.20 3.79,4.34 2.83,3.49 3.87,4.25 4.91,5.01 3.96,4.50 3.00,3.98 1.87,3.29 0.75,2.60 0.28,2.52 -0.18,2.44 -0.47,2.38 -0.76,2.33 -1.02,2.20 -1.29,2.08 -1.52,1.89 -1.75,1.70 -1.93,1.47 -2.11,1.23 -2.23,0.96 -2.34,0.69 -2.39,0.40 -2.44,0.11 -2.42,-0.17 -2.40,-0.47 -2.31,-0.75 -2.22,-1.03 -2.06,-1.28 -1.90,-1.53 -1.69,-1.74 -1.48,-1.94 -1.23,-2.09 -0.97,-2.24 -0.69,-2.33 -0.40,-2.41 -0.11,-2.43 0.18,-2.44 0.18,-2.44 L 0.18,-2.44 Z"></path></g><g transform="translate(101.95703125 193.734375) rotate(0 118.453125 -20.15625)" stroke="none"><path fill="#000000" d="M -0.71,-13.36 Q -0.71,-13.36 -0.03,-13.62 0.65,-13.88 1.69,-14.33 2.72,-14.78 3.65,-15.42 4.58,-16.06 5.60,-16.60 6.61,-17.14 7.79,-17.73 8.97,-18.32 10.09,-18.78 11.20,-19.24 12.41,-19.59 13.62,-19.95 14.72,-20.25 15.82,-20.55 16.88,-20.85 17.94,-21.15 19.03,-21.47 20.11,-21.78 21.28,-22.12 22.44,-22.46 23.46,-22.77 24.49,-23.07 25.63,-23.42 26.78,-23.76 27.84,-24.05 28.91,-24.34 29.96,-24.58 31.01,-24.82 32.04,-25.07 33.08,-25.31 34.23,-25.53 35.39,-25.75 36.58,-26.01 37.77,-26.27 39.06,-26.52 40.36,-26.77 41.54,-26.89 42.71,-27.00 43.93,-27.14 45.15,-27.28 46.53,-27.48 47.90,-27.68 49.17,-27.87 50.43,-28.06 51.75,-28.27 53.06,-28.49 54.24,-28.65 55.41,-28.82 56.65,-28.98 57.90,-29.14 58.99,-29.24 60.07,-29.34 61.42,-29.47 62.76,-29.60 63.90,-29.72 65.03,-29.83 66.13,-29.94 67.22,-30.04 68.33,-30.14 69.43,-30.25 70.64,-30.41 71.85,-30.57 72.93,-30.70 74.01,-30.84 75.24,-30.96 76.47,-31.09 78.02,-31.20 79.57,-31.31 81.15,-31.41 82.73,-31.52 83.85,-31.59 84.96,-31.66 86.11,-31.76 87.26,-31.86 88.52,-31.93 89.78,-31.99 91.43,-32.04 93.07,-32.09 94.28,-32.17 95.49,-32.25 96.96,-32.34 98.42,-32.43 99.83,-32.49 101.24,-32.55 102.50,-32.63 103.76,-32.70 105.34,-32.79 106.91,-32.88 108.10,-32.91 109.28,-32.95 110.59,-33.05 111.89,-33.14 113.00,-33.20 114.11,-33.25 115.31,-33.30 116.50,-33.35 117.84,-33.36 119.18,-33.36 120.71,-33.34 122.23,-33.33 123.79,-33.30 125.35,-33.27 126.77,-33.20 128.19,-33.12 129.37,-33.11 130.56,-33.10 131.78,-33.08 133.01,-33.06 134.16,-33.01 135.32,-32.95 136.43,-32.92 137.54,-32.88 138.63,-32.82 139.71,-32.76 140.78,-32.69 141.84,-32.61 143.29,-32.59 144.74,-32.57 146.00,-32.49 147.26,-32.41 148.53,-32.35 149.80,-32.28 150.96,-32.22 152.12,-32.16 153.21,-32.13 154.30,-32.09 155.64,-32.04 156.99,-31.98 158.16,-31.87 159.33,-31.76 160.53,-31.61 161.72,-31.47 162.94,-31.34 164.16,-31.21 165.63,-31.00 167.10,-30.79 168.16,-30.59 169.22,-30.40 170.31,-30.21 171.40,-30.02 172.53,-29.87 173.66,-29.73 174.91,-29.52 176.15,-29.31 177.20,-29.13 178.25,-28.95 179.62,-28.79 180.99,-28.64 182.42,-28.49 183.85,-28.34 185.13,-28.16 186.41,-27.97 187.62,-27.79 188.82,-27.61 190.10,-27.31 191.38,-27.01 192.52,-26.74 193.65,-26.47 195.13,-26.14 196.60,-25.80 198.00,-25.41 199.39,-25.03 200.64,-24.74 201.89,-24.45 203.24,-24.12 204.59,-23.79 205.79,-23.52 206.98,-23.24 208.03,-22.98 209.08,-22.72 210.18,-22.42 211.28,-22.13 212.47,-21.77 213.67,-21.41 214.94,-20.98 216.20,-20.56 217.45,-20.22 218.69,-19.88 219.91,-19.50 221.14,-19.12 222.23,-18.79 223.33,-18.46 224.57,-18.10 225.81,-17.75 226.94,-17.48 228.07,-17.22 229.18,-16.92 230.30,-16.63 231.50,-16.25 232.71,-15.87 233.72,-15.53 234.74,-15.19 236.89,-14.43 239.04,-13.68 239.49,-13.26 239.94,-12.83 240.23,-12.29 240.52,-11.74 240.63,-11.13 240.73,-10.52 240.63,-9.91 240.53,-9.30 240.25,-8.75 239.96,-8.20 239.51,-7.77 239.06,-7.34 238.50,-7.08 237.94,-6.82 237.33,-6.75 236.71,-6.68 236.11,-6.81 235.50,-6.94 234.97,-7.26 234.44,-7.57 234.03,-8.05 233.63,-8.52 233.40,-9.09 233.17,-9.66 233.13,-10.28 233.09,-10.90 233.26,-11.50 233.42,-12.09 233.77,-12.61 234.11,-13.12 234.60,-13.50 235.09,-13.88 235.68,-14.08 236.27,-14.28 236.89,-14.28 237.50,-14.28 238.09,-14.09 238.68,-13.89 239.17,-13.52 239.67,-13.15 240.02,-12.64 240.37,-12.12 240.54,-11.53 240.70,-10.93 240.67,-10.31 240.64,-9.70 240.42,-9.12 240.19,-8.54 239.79,-8.07 239.39,-7.60 238.86,-7.27 238.33,-6.95 237.73,-6.82 237.12,-6.68 236.51,-6.75 235.89,-6.81 235.33,-7.07 234.77,-7.33 234.77,-7.33 234.77,-7.33 233.01,-7.84 231.25,-8.35 230.00,-8.73 228.75,-9.11 227.53,-9.44 226.31,-9.77 225.14,-10.03 223.97,-10.29 222.79,-10.66 221.62,-11.02 220.51,-11.35 219.41,-11.68 218.36,-12.01 217.30,-12.35 216.11,-12.67 214.92,-12.99 213.84,-13.34 212.76,-13.69 211.52,-14.12 210.27,-14.55 209.18,-14.89 208.08,-15.23 206.88,-15.54 205.69,-15.86 204.56,-16.13 203.42,-16.40 202.30,-16.68 201.17,-16.97 199.75,-17.28 198.34,-17.60 197.02,-17.96 195.70,-18.32 194.66,-18.53 193.62,-18.75 192.57,-19.04 191.52,-19.34 190.19,-19.68 188.86,-20.02 187.69,-20.32 186.53,-20.62 185.25,-20.82 183.97,-21.03 182.56,-21.18 181.16,-21.33 179.67,-21.50 178.18,-21.67 177.09,-21.83 175.99,-22.00 174.91,-22.19 173.83,-22.38 172.70,-22.53 171.57,-22.69 170.30,-22.86 169.03,-23.03 167.44,-23.32 165.85,-23.61 164.54,-23.80 163.23,-23.99 162.05,-24.14 160.88,-24.28 159.58,-24.46 158.28,-24.64 157.06,-24.74 155.85,-24.84 154.44,-24.94 153.02,-25.04 151.90,-25.08 150.77,-25.11 149.63,-25.19 148.49,-25.26 146.59,-25.34 144.69,-25.43 143.52,-25.45 142.35,-25.46 140.87,-25.57 139.39,-25.68 138.28,-25.75 137.18,-25.83 136.10,-25.87 135.03,-25.91 133.39,-26.00 131.74,-26.09 130.48,-26.10 129.21,-26.11 127.87,-26.15 126.52,-26.20 125.16,-26.24 123.79,-26.29 122.22,-26.27 120.66,-26.25 119.28,-26.23 117.90,-26.22 116.77,-26.20 115.65,-26.18 114.47,-26.11 113.30,-26.04 111.87,-25.98 110.45,-25.91 108.96,-25.87 107.46,-25.83 106.28,-25.75 105.10,-25.68 104.04,-25.66 102.97,-25.64 101.58,-25.54 100.19,-25.45 98.84,-25.36 97.50,-25.28 96.04,-25.17 94.58,-25.06 93.10,-24.97 91.62,-24.89 90.27,-24.79 88.91,-24.69 87.83,-24.61 86.75,-24.53 85.52,-24.42 84.30,-24.31 82.65,-24.20 81.01,-24.09 79.52,-23.98 78.04,-23.87 76.56,-23.74 75.08,-23.60 73.95,-23.44 72.82,-23.29 71.56,-23.10 70.29,-22.91 69.12,-22.78 67.95,-22.65 66.87,-22.53 65.80,-22.41 64.27,-22.22 62.74,-22.02 61.27,-21.89 59.80,-21.75 58.49,-21.59 57.18,-21.42 56.10,-21.27 55.01,-21.12 53.93,-20.93 52.85,-20.74 51.67,-20.59 50.49,-20.44 48.99,-20.20 47.49,-19.96 46.35,-19.81 45.22,-19.67 43.98,-19.51 42.74,-19.36 41.32,-19.17 39.90,-18.98 38.63,-18.70 37.36,-18.42 36.21,-18.19 35.07,-17.95 33.84,-17.70 32.61,-17.44 31.47,-17.20 30.32,-16.96 29.18,-16.69 28.04,-16.42 26.89,-16.07 25.73,-15.73 24.38,-15.37 23.03,-15.01 21.90,-14.74 20.78,-14.47 19.69,-14.23 18.61,-13.99 17.52,-13.73 16.44,-13.47 15.14,-13.16 13.85,-12.86 12.76,-12.54 11.68,-12.23 10.50,-11.90 9.32,-11.57 7.98,-10.91 6.65,-10.25 5.54,-9.85 4.44,-9.45 3.29,-9.20 2.13,-8.95 1.42,-8.79 0.71,-8.62 0.42,-8.57 0.12,-8.52 -0.17,-8.54 -0.46,-8.56 -0.75,-8.66 -1.03,-8.75 -1.28,-8.90 -1.54,-9.06 -1.75,-9.27 -1.96,-9.49 -2.11,-9.74 -2.26,-10.00 -2.35,-10.28 -2.43,-10.57 -2.45,-10.87 -2.46,-11.17 -2.41,-11.46 -2.35,-11.75 -2.23,-12.02 -2.10,-12.29 -1.91,-12.53 -1.73,-12.76 -1.49,-12.94 -1.26,-13.12 -0.98,-13.24 -0.71,-13.36 -0.71,-13.36 L -0.71,-13.36 Z"></path></g><g transform="translate(380.97265625 124.8515625) rotate(0 24 12)"><text x="0" y="20" font-family="Cascadia, Segoe UI Emoji" font-size="20px" fill="#000000" text-anchor="start" style="white-space: pre;" direction="ltr">word</text></g><g transform="translate(293.06640625 169.91796875) rotate(0 48.34765625 23.892578125)" stroke="none"><path fill="#000000" d="M 2.44,-0.94 Q 2.44,-0.94 2.83,-0.00 3.23,0.93 3.86,2.10 4.49,3.28 5.29,4.54 6.08,5.79 6.93,7.04 7.79,8.28 8.38,9.27 8.98,10.26 9.68,11.16 10.37,12.07 11.17,12.87 11.97,13.68 12.98,14.53 13.98,15.39 14.94,16.29 15.90,17.19 16.79,18.06 17.68,18.92 18.80,19.83 19.92,20.74 21.11,21.86 22.30,22.99 23.08,23.82 23.86,24.65 24.86,25.41 25.85,26.18 26.71,26.94 27.58,27.71 28.60,28.37 29.62,29.04 30.62,29.69 31.62,30.34 32.64,31.01 33.66,31.68 35.02,32.47 36.39,33.25 37.36,33.74 38.34,34.22 39.34,34.69 40.35,35.17 41.44,35.67 42.53,36.17 43.63,36.67 44.74,37.16 46.31,37.74 47.87,38.31 48.96,38.73 50.05,39.15 51.09,39.42 52.13,39.70 53.26,39.88 54.40,40.07 55.71,40.30 57.02,40.53 58.25,40.81 59.47,41.08 60.70,41.31 61.92,41.55 63.53,41.81 65.14,42.07 66.22,42.24 67.29,42.42 68.41,42.63 69.52,42.84 70.87,43.09 72.22,43.35 73.54,43.55 74.87,43.75 76.20,43.76 77.53,43.77 78.79,43.77 80.04,43.77 81.19,43.86 82.34,43.95 83.71,44.01 85.07,44.07 86.42,44.06 87.77,44.06 88.91,44.05 90.05,44.05 91.17,44.05 92.29,44.05 94.49,44.04 96.69,44.04 97.29,44.13 97.89,44.23 98.42,44.52 98.96,44.80 99.37,45.24 99.79,45.68 100.04,46.23 100.30,46.78 100.36,47.38 100.43,47.98 100.30,48.57 100.17,49.17 99.86,49.69 99.54,50.20 99.08,50.60 98.62,50.99 98.06,51.21 97.49,51.44 96.89,51.47 96.29,51.50 95.70,51.34 95.12,51.18 94.62,50.84 94.12,50.50 93.75,50.02 93.38,49.53 93.19,48.96 93.00,48.39 93.00,47.78 93.00,47.17 93.19,46.60 93.38,46.03 93.75,45.54 94.12,45.06 94.62,44.72 95.12,44.38 95.70,44.22 96.29,44.06 96.89,44.09 97.50,44.12 98.06,44.35 98.62,44.57 99.08,44.96 99.54,45.36 99.86,45.88 100.17,46.40 100.30,46.99 100.43,47.58 100.36,48.18 100.30,48.78 100.04,49.33 99.79,49.88 99.37,50.32 98.96,50.76 98.42,51.04 97.88,51.33 97.29,51.43 96.69,51.52 96.69,51.52 96.69,51.52 95.16,51.52 93.63,51.52 92.23,51.52 90.82,51.51 89.67,51.51 88.52,51.51 87.12,51.50 85.72,51.49 84.56,51.47 83.39,51.45 82.09,51.33 80.79,51.21 79.55,51.19 78.30,51.17 77.03,51.16 75.76,51.15 74.36,51.02 72.96,50.90 71.78,50.69 70.60,50.47 69.23,50.18 67.87,49.88 66.71,49.66 65.55,49.43 64.16,49.18 62.76,48.94 61.57,48.72 60.39,48.50 59.26,48.28 58.13,48.07 56.88,47.80 55.63,47.53 54.47,47.34 53.32,47.14 51.93,46.92 50.54,46.70 49.14,46.33 47.73,45.96 46.06,45.34 44.38,44.71 43.09,44.25 41.79,43.78 40.66,43.29 39.53,42.80 38.45,42.31 37.37,41.83 36.23,41.31 35.09,40.79 34.00,40.26 32.91,39.73 31.89,39.16 30.86,38.59 29.87,38.03 28.88,37.47 27.63,36.57 26.38,35.68 25.20,34.97 24.02,34.26 23.14,33.52 22.26,32.77 21.14,31.80 20.02,30.82 19.17,30.13 18.32,29.43 17.61,28.63 16.89,27.83 15.94,26.95 14.99,26.07 14.08,25.32 13.18,24.57 12.33,23.70 11.47,22.83 10.65,21.99 9.82,21.15 9.01,20.41 8.20,19.68 7.38,18.84 6.55,18.00 5.64,16.88 4.72,15.77 4.11,14.87 3.50,13.96 2.85,12.71 2.20,11.46 1.63,10.42 1.06,9.38 0.55,8.34 0.04,7.30 -0.47,6.15 -0.99,5.00 -1.38,3.93 -1.76,2.86 -2.10,1.90 -2.44,0.94 -2.52,0.63 -2.59,0.33 -2.60,0.01 -2.60,-0.29 -2.52,-0.60 -2.45,-0.91 -2.30,-1.19 -2.16,-1.47 -1.95,-1.71 -1.74,-1.94 -1.49,-2.13 -1.23,-2.31 -0.93,-2.42 -0.64,-2.53 -0.32,-2.57 -0.01,-2.61 0.29,-2.58 0.61,-2.54 0.90,-2.43 1.20,-2.32 1.46,-2.14 1.72,-1.97 1.93,-1.73 2.14,-1.50 2.29,-1.22 2.44,-0.94 2.44,-0.94 L 2.44,-0.94 Z"></path></g><g transform="translate(386.6796875 209.55859375) rotate(0 2.79296875 7.7265625)" stroke="none"><path fill="#000000" d="M 1.96,-1.60 Q 1.96,-1.60 2.43,-1.09 2.90,-0.59 3.53,0.35 4.17,1.30 4.97,2.01 5.77,2.72 7.02,4.28 8.27,5.85 8.08,7.22 7.89,8.59 7.36,9.62 6.83,10.64 6.17,11.70 5.52,12.76 4.70,13.90 3.89,15.05 4.51,14.10 5.13,13.15 4.58,14.72 4.03,16.30 3.80,16.82 3.58,17.35 3.20,17.78 2.81,18.20 2.32,18.49 1.82,18.77 1.25,18.88 0.69,18.99 0.12,18.91 -0.43,18.84 -0.95,18.58 -1.46,18.33 -1.87,17.93 -2.27,17.52 -2.53,17.01 -2.79,16.50 -2.86,15.93 -2.94,15.36 -2.84,14.80 -2.73,14.23 -2.45,13.73 -2.17,13.23 -1.74,12.85 -1.32,12.47 -0.79,12.24 -0.26,12.01 0.30,11.96 0.87,11.92 1.43,12.05 1.98,12.19 2.47,12.50 2.95,12.81 3.31,13.25 3.67,13.70 3.87,14.24 4.07,14.77 4.08,15.35 4.10,15.92 3.93,16.47 3.77,17.02 3.43,17.48 3.10,17.95 2.63,18.28 2.17,18.62 1.62,18.79 1.07,18.96 0.50,18.94 -0.06,18.93 -0.60,18.73 -1.14,18.54 -1.59,18.18 -2.03,17.82 -2.34,17.34 -2.65,16.85 -2.79,16.30 -2.93,15.74 -2.89,15.17 -2.84,14.60 -2.84,14.60 -2.84,14.60 -2.17,12.98 -1.50,11.36 -0.92,10.30 -0.35,9.23 0.39,8.18 1.13,7.14 1.82,6.21 2.50,5.28 2.95,7.03 3.39,8.77 2.39,7.94 1.40,7.12 0.65,6.08 -0.08,5.03 -0.63,3.87 -1.17,2.72 -1.57,2.16 -1.96,1.60 -2.12,1.34 -2.29,1.08 -2.38,0.79 -2.48,0.50 -2.50,0.19 -2.53,-0.10 -2.48,-0.40 -2.43,-0.70 -2.31,-0.98 -2.19,-1.27 -2.00,-1.51 -1.82,-1.75 -1.58,-1.95 -1.35,-2.14 -1.07,-2.27 -0.79,-2.40 -0.49,-2.46 -0.19,-2.52 0.10,-2.51 0.41,-2.50 0.70,-2.41 0.99,-2.33 1.26,-2.17 1.52,-2.02 1.74,-1.81 1.96,-1.59 1.96,-1.60 L 1.96,-1.60 Z"></path></g><g transform="translate(403.24609375 204.37109375) rotate(0 35.5 12)"><text x="0" y="20" font-family="Cascadia, Segoe UI Emoji" font-size="20px" fill="#000000" text-anchor="start" style="white-space: pre;" direction="ltr">idx2+1</text></g></svg>