<svg version="1.1" xmlns="http://www.w3.org/2000/svg" viewBox="0 0 535.609375 438.796875" width="535.609375" height="438.796875">
  <!-- svg-source:excalidraw -->
  
  <defs>
    <style>
      @font-face {
        font-family: "Virgil";
        src: url("https://excalidraw.com/Virgil.woff2");
      }
      @font-face {
        font-family: "Cascadia";
        src: url("https://excalidraw.com/Cascadia.woff2");
      }
    </style>
  </defs>
  <g stroke-linecap="round" transform="translate(10 10) rotate(0 68.84475269846115 165.03125)"><path d="M-1.43 -0.92 C30.06 0.24, 57.22 1.91, 138.93 -0.63 M-0.93 0.89 C51.95 -0.29, 105.42 -0.52, 137.69 0.8 M138.35 -0.2 C137.45 92.53, 137.06 188.26, 139.01 330.64 M137.68 0.13 C139.42 75.17, 139.69 150.58, 138.3 329.69 M137 329.7 C110.34 329.53, 80.06 329.21, -0.53 328.7 M138.43 330.42 C108.74 328.8, 81.17 329.81, -0.37 329.84 M0.65 330.72 C-2.21 254.75, -2.94 176.03, -0.34 0.26 M-0.15 330.57 C-1.33 206.7, -0.87 82.02, -0.11 -0.65" stroke="#000000" stroke-width="1" fill="none"></path></g><g stroke-linecap="round"><g transform="translate(11.620564266173687 181.34787825192882) rotate(0 67.95490378276543 -0.10067633717727631)"><path d="M0 0 C22.65 -0.03, 113.26 -0.17, 135.91 -0.2 M0 0 C22.65 -0.03, 113.26 -0.17, 135.91 -0.2" stroke="#000000" stroke-width="1" fill="none"></path></g></g><g stroke-linecap="round"><g transform="translate(11.263325650382512 262.7365778003009) rotate(0 67.95490378276543 -0.10067633717727631)"><path d="M0 0 C22.65 -0.03, 113.26 -0.17, 135.91 -0.2 M0 0 C22.65 -0.03, 113.26 -0.17, 135.91 -0.2" stroke="#000000" stroke-width="1" fill="none"></path></g></g><g stroke-linecap="round"><g transform="translate(11.263325650382512 101.12507564054738) rotate(0 67.95490378276543 -0.10067633717727631)"><path d="M0 0 C22.65 -0.03, 113.26 -0.17, 135.91 -0.2 M0 0 C22.65 -0.03, 113.26 -0.17, 135.91 -0.2" stroke="#000000" stroke-width="1" fill="none"></path></g></g><g transform="translate(72.41825655305001 42.23276994450589) rotate(0 6.5 12)"><text x="0" y="20" font-family="Cascadia, Segoe UI Emoji" font-size="20px" fill="#000000" text-anchor="start" style="white-space: pre;" direction="ltr">0</text></g><g transform="translate(74.83258164259382 127.57058000924724) rotate(0 6.5 12)"><text x="0" y="20" font-family="Cascadia, Segoe UI Emoji" font-size="20px" fill="#000000" text-anchor="start" style="white-space: pre;" direction="ltr">1</text></g><g transform="translate(71.88316856403912 214.13096207395188) rotate(0 6.5 12)"><text x="0" y="20" font-family="Cascadia, Segoe UI Emoji" font-size="20px" fill="#000000" text-anchor="start" style="white-space: pre;" direction="ltr">2</text></g><g transform="translate(74.44933374822926 289.2199522542128) rotate(0 6.5 12)"><text x="0" y="20" font-family="Cascadia, Segoe UI Emoji" font-size="20px" fill="#000000" text-anchor="start" style="white-space: pre;" direction="ltr">3</text></g><g transform="translate(16.078125 380.796875) rotate(0 53 24)"><text x="0" y="20" font-family="Cascadia, Segoe UI Emoji" font-size="20px" fill="#000000" text-anchor="start" style="white-space: pre;" direction="ltr">fd = 3</text><text x="0" y="44" font-family="Cascadia, Segoe UI Emoji" font-size="20px" fill="#000000" text-anchor="start" style="white-space: pre;" direction="ltr">backup[4]</text></g><g stroke-linecap="round" transform="translate(305.78125 10) rotate(0 68.84475269846115 165.03125)"><path d="M1.59 -0.68 C30.33 -2.11, 60.8 -0.39, 135.84 1.57 M0.43 0.21 C53 -0.17, 105.55 -1.72, 138.12 0.02 M137.63 -1.18 C138.04 91.6, 138.47 184.23, 137.28 331 M137.15 0.49 C136.76 128.22, 137.55 256.84, 137.5 329.68 M138.64 331.23 C84.77 329.92, 30 330.05, 1.78 330.92 M137.72 329.64 C106.26 330.23, 75.45 331.5, 0.56 330.87 M-0.58 329.18 C1.59 252.25, 2.54 174.37, 0.4 -0.78 M-0.63 330.44 C1.16 201.92, 1.17 74.06, -0.47 -0.23" stroke="#000000" stroke-width="1" fill="none"></path></g><g stroke-linecap="round"><g transform="translate(307.0445756503825 262.7365778003009) rotate(0 67.95490378276543 -0.10067633717727631)"><path d="M0 0 C22.65 -0.03, 113.26 -0.17, 135.91 -0.2 M0 0 C22.65 -0.03, 113.26 -0.17, 135.91 -0.2" stroke="#000000" stroke-width="1" fill="none"></path></g></g><g stroke-linecap="round"><g transform="translate(307.0445756503825 101.12507564054738) rotate(0 67.95490378276543 -0.10067633717727631)"><path d="M0 0 C22.65 -0.03, 113.26 -0.17, 135.91 -0.2 M0 0 C22.65 -0.03, 113.26 -0.17, 135.91 -0.2" stroke="#000000" stroke-width="1" fill="none"></path></g></g><g transform="translate(367.19950655305 42.23276994450589) rotate(0 6.5 12)"><text x="0" y="20" font-family="Cascadia, Segoe UI Emoji" font-size="20px" fill="#000000" text-anchor="start" style="white-space: pre;" direction="ltr">0</text></g><g transform="translate(368.4732066425938 129.61745500924724) rotate(0 6.5 12)"><text x="0" y="20" font-family="Cascadia, Segoe UI Emoji" font-size="20px" fill="#000000" text-anchor="start" style="white-space: pre;" direction="ltr">1</text></g><g transform="translate(327.23058374822926 289.7199522542128) rotate(0 47.5 12)"><text x="0" y="20" font-family="Cascadia, Segoe UI Emoji" font-size="20px" fill="#000000" text-anchor="start" style="white-space: pre;" direction="ltr">OPEN_MAX</text></g><g transform="translate(313.609375 380.796875) rotate(0 106 24)"><text x="0" y="20" font-family="Cascadia, Segoe UI Emoji" font-size="20px" fill="#000000" text-anchor="start" style="white-space: pre;" direction="ltr">fd = OPEN_MAX</text><text x="0" y="44" font-family="Cascadia, Segoe UI Emoji" font-size="20px" fill="#000000" text-anchor="start" style="white-space: pre;" direction="ltr">backup[OPEN_MAX+1]</text></g><g stroke-linecap="round"><g transform="translate(307.4018142661737 182.85178450192882) rotate(0 67.95490378276543 -0.10067633717727631)"><path d="M0 0 C22.65 -0.03, 113.26 -0.17, 135.91 -0.2 M0 0 C22.65 -0.03, 113.26 -0.17, 135.91 -0.2" stroke="#000000" stroke-width="1" fill="none"></path></g></g><g transform="translate(355.3753560640391 204.09580582395188) rotate(0 18 12)"><text x="0" y="20" font-family="Cascadia, Segoe UI Emoji" font-size="20px" fill="#000000" text-anchor="start" style="white-space: pre;" direction="ltr">...</text></g></svg>