<svg version="1.1" xmlns="http://www.w3.org/2000/svg" viewBox="0 0 1190.8515625 374.25" width="1190.8515625" height="374.25">
  <!-- svg-source:excalidraw -->
  
  <defs>
    <style>
      @font-face {
        font-family: "Virgil";
        src: url("https://excalidraw.com/Virgil.woff2");
      }
      @font-face {
        font-family: "Cascadia";
        src: url("https://excalidraw.com/Cascadia.woff2");
      }
    </style>
  </defs>
  <g stroke-linecap="round" transform="translate(10 113.80859375) rotate(0 65.5 36)"><path d="M1.7 0.32 C41.03 0.85, 82.82 -0.59, 131.9 1.38 M-0.61 -0.01 C43.68 0.55, 86.24 1.8, 130.89 -0.17 M131.34 0.97 C131.69 29.77, 131.5 57, 130.82 71.11 M130.85 0.31 C130.63 21.79, 131.09 44.63, 130.27 71.38 M130.28 72.48 C91.62 72.63, 48.09 72.42, -1.27 70.1 M130.7 72.72 C94.16 71.27, 57.09 70.57, -0.23 72.5 M-1.79 72.56 C-1.58 47.8, 0.47 25.95, 0.11 -0.43 M-0.72 72.73 C0.74 51.75, 0.86 30.47, -0.86 0.87" stroke="#000000" stroke-width="1" fill="none"></path></g><g transform="translate(15 129.80859375) rotate(0 60.5 20)"><text x="60.5" y="16" font-family="Cascadia, Segoe UI Emoji" font-size="16px" fill="#000000" text-anchor="middle" style="white-space: pre;" direction="ltr">헤더 파일</text><text x="60.5" y="36" font-family="Cascadia, Segoe UI Emoji" font-size="16px" fill="#000000" text-anchor="middle" style="white-space: pre;" direction="ltr">(*.h)</text></g><g stroke-linecap="round" transform="translate(10.36328125 222.42578125) rotate(0 65.5 36)"><path d="M-1.71 0.78 C48.52 1.64, 95.93 0.93, 129.94 -0.49 M-0.21 0.57 C35.23 1, 68.47 0.35, 131.54 0.6 M130.64 0.24 C131.17 26.1, 132.19 56.88, 132.51 73.2 M131.12 0.9 C131.51 23.32, 131.45 47, 131.25 72.91 M129.53 72.62 C87.96 70.21, 44.57 73.39, -0.54 71.79 M131.3 71.17 C87.35 71.83, 44.15 70.79, 0.7 72.87 M-0.65 73.87 C1.76 46.13, 1.31 22.54, -1.38 -0.93 M0.41 72.91 C0.96 53.34, 0.44 35.62, 0.5 -0.45" stroke="#000000" stroke-width="1" fill="none"></path></g><g transform="translate(15.36328125 238.42578125) rotate(0 60.5 20)"><text x="60.5" y="16" font-family="Cascadia, Segoe UI Emoji" font-size="16px" fill="#000000" text-anchor="middle" style="white-space: pre;" direction="ltr">소스 코드</text><text x="60.5" y="36" font-family="Cascadia, Segoe UI Emoji" font-size="16px" fill="#000000" text-anchor="middle" style="white-space: pre;" direction="ltr">(*.c)</text></g><g stroke-linecap="round"><g transform="translate(142.97656250000006 257.84133544353546) rotate(0 65.37130836658179 0.12013088250265014)"><path d="M-1.16 -1.13 C21 -1.2, 110.01 -0.49, 131.91 -0.21 M0.43 0.89 C22.63 0.99, 110.12 1.64, 131.58 1.24" stroke="#000000" stroke-width="1" fill="none"></path></g><g transform="translate(142.97656250000006 257.84133544353546) rotate(0 65.37130836658179 0.12013088250265014)"><path d="M101.54 13.57 C109.04 8.83, 116.23 7.34, 129.8 2.07 M102.56 12.4 C115.03 7.19, 125.29 4.21, 131.74 1.82" stroke="#000000" stroke-width="1" fill="none"></path></g><g transform="translate(142.97656250000006 257.84133544353546) rotate(0 65.37130836658179 0.12013088250265014)"><path d="M101.47 -6.95 C109.03 -7.39, 116.23 -4.57, 129.8 2.07 M102.49 -8.12 C115.08 -5.5, 125.37 -0.66, 131.74 1.82" stroke="#000000" stroke-width="1" fill="none"></path></g></g><g stroke-linecap="round" transform="translate(786.61328125 114.4140625) rotate(0 65.5 36)"><path d="M0.18 1.44 C32.91 2.82, 67.4 1.57, 131.73 -0.66 M-0.24 -0.28 C40.65 -1.29, 80.19 -0.17, 130.07 -0.23 M131.21 -1.01 C129.7 21.08, 131.91 40.13, 131.36 71.09 M131.3 0.93 C130.87 20.79, 131.74 40.97, 130.14 71.65 M132.24 72.51 C87.74 71.01, 42.64 70.69, 0.2 73.41 M130.21 71.83 C90.6 72.24, 47.56 72.37, 0.9 72.12 M-0.18 72.31 C-0.91 55.32, -2.04 37.46, -1.8 -0.6 M-0.4 71.68 C-0.34 55.98, -0.07 39.89, -0.27 -0.67" stroke="#000000" stroke-width="1" fill="none"></path></g><g stroke-linecap="round"><g transform="translate(142.83203125 149.6171875) rotate(0 34.94026991277934 -0.40025531711339113)"><path d="M0.79 -0.18 C12.53 0, 58.41 0.7, 70.14 0.6 M-0.26 -1.31 C11.31 -1.45, 57.14 -1.45, 68.97 -1.21" stroke="#000000" stroke-width="1" fill="none"></path></g></g><g stroke-linecap="round"><g transform="translate(212.89453125 149.66796875) rotate(0 -0.23201990894972369 54.79531889148056)"><path d="M-1.03 -1.04 C-0.94 17.42, -0.22 92.27, -0.1 110.63 M0.63 1.03 C0.61 19.12, -0.78 90.58, -1.09 108.72" stroke="#000000" stroke-width="1" fill="none"></path></g></g><g stroke-linecap="round" transform="translate(286.83984375 222.765625) rotate(0 65.5 36)"><path d="M1.47 -1.76 C28.59 -1.26, 55.34 -0.7, 129.84 -1.48 M0.62 0.01 C49.5 0.17, 98.87 -0.49, 130.1 0.05 M129.55 1.32 C129.12 24.8, 131.93 48.29, 129.31 72.69 M130.31 -0.54 C130.65 15.95, 129.87 29.84, 131.13 71.45 M131.15 72.8 C94.27 70.79, 54.53 71.41, -1.35 70.99 M130.8 72.08 C103.82 71.55, 74.77 70.57, 0.94 71.5 M0.55 71.02 C0.64 53.01, -0.23 33.21, -1.9 1.07 M0.59 72.88 C-1.4 45.36, -0.82 21.57, -0.64 -0.01" stroke="#000000" stroke-width="1" fill="none"></path></g><g transform="translate(291.83984375 228.765625) rotate(0 60.5 30)"><text x="60.5" y="16" font-family="Cascadia, Segoe UI Emoji" font-size="16px" fill="#000000" text-anchor="middle" style="white-space: pre;" direction="ltr">소스 코드</text><text x="60.5" y="36" font-family="Cascadia, Segoe UI Emoji" font-size="16px" fill="#000000" text-anchor="middle" style="white-space: pre;" direction="ltr">(전처리 됨)</text><text x="60.5" y="56" font-family="Cascadia, Segoe UI Emoji" font-size="16px" fill="#000000" text-anchor="middle" style="white-space: pre;" direction="ltr">(*.i)</text></g><g stroke-linecap="round" transform="translate(541.375 222.34765625) rotate(0 65.5 36)"><path d="M-0.63 1.9 C40.72 -0.61, 85.32 2.19, 131.03 0.47 M-0.71 -0.06 C38.59 -1.88, 76.82 -1.92, 131.29 -0.55 M130.42 -1.94 C128.84 14.96, 131.6 29.17, 129.86 70.59 M130.04 -0.91 C129.68 22.31, 131.3 43.69, 130.88 72.37 M129.03 72.28 C101.91 70.47, 74.55 74.1, 0.31 71.16 M130.89 72.32 C105.26 72.1, 79.29 72.76, -0.66 71.27 M1.58 73.44 C1.63 53.54, -0.42 32.47, -0.79 -0.16 M-0.48 71.89 C1.1 54.24, 0.16 36.65, 0.59 0.8" stroke="#000000" stroke-width="1" fill="none"></path></g><g transform="translate(546.375 238.34765625) rotate(0 60.5 20)"><text x="60.5" y="16" font-family="Cascadia, Segoe UI Emoji" font-size="16px" fill="#000000" text-anchor="middle" style="white-space: pre;" direction="ltr">어셈블리어 파일</text><text x="60.5" y="36" font-family="Cascadia, Segoe UI Emoji" font-size="16px" fill="#000000" text-anchor="middle" style="white-space: pre;" direction="ltr">(*.s)</text></g><g stroke-linecap="round"><g transform="translate(421.91796875 257.61104002809316) rotate(0 55.0010681372695 -0.5583295340845496)"><path d="M-0.3 -0.19 C17.82 -0.51, 90.05 -0.74, 108.07 -0.79 M1.74 -1.33 C20.3 -1.03, 92.24 -0.08, 110.31 0.21" stroke="#000000" stroke-width="1" fill="none"></path></g><g transform="translate(421.91796875 257.61104002809316) rotate(0 55.0010681372695 -0.5583295340845496)"><path d="M81.66 8.54 C87.04 5.84, 94.37 7.05, 112.29 -0.51 M82.49 10.76 C90.94 7.56, 100.17 4.04, 110.78 0.61" stroke="#000000" stroke-width="1" fill="none"></path></g><g transform="translate(421.91796875 257.61104002809316) rotate(0 55.0010681372695 -0.5583295340845496)"><path d="M81.96 -11.98 C87.47 -9.72, 94.72 -3.54, 112.29 -0.51 M82.79 -9.76 C91.05 -6.67, 100.19 -3.9, 110.78 0.61" stroke="#000000" stroke-width="1" fill="none"></path></g></g><g stroke-linecap="round" transform="translate(788.14453125 219.55078125) rotate(0 65.5 36)"><path d="M1.6 1.15 C47.38 0.67, 94.25 0.19, 130.92 1.99 M-0.13 -0.43 C44.3 0.03, 89.18 0.98, 131.32 -0.2 M132.89 -0.56 C130.77 21.89, 131.18 40.67, 129.02 70.08 M131.31 -0.82 C129.95 23.83, 131.55 48.15, 130.64 71.32 M129.11 72.08 C78.53 71.09, 28.93 72.24, -1.62 74 M130.36 71.06 C79.58 72.7, 30.06 72.01, 0.35 71.56 M0.93 73.27 C0.7 49.07, -0.3 25.13, 1.08 -1.27 M0.09 71.56 C-0.4 54.03, 0.94 36.59, -0.23 -0.23" stroke="#000000" stroke-width="1" fill="none"></path></g><g stroke-linecap="round"><g transform="translate(673.375 258.9192764705722) rotate(0 52.41714622914799 0.08722594922176086)"><path d="M-0.69 -1 C16.56 -1.06, 85.95 -0.99, 103.31 -0.86 M1.15 1.08 C18.79 1.29, 88.05 1.25, 105.52 0.71" stroke="#000000" stroke-width="1" fill="none"></path></g><g transform="translate(673.375 258.9192764705722) rotate(0 52.41714622914799 0.08722594922176086)"><path d="M75.8 9.74 C85.57 7.18, 94.63 5.27, 103.82 -0.33 M77.78 11.54 C87.92 7.8, 98.71 2.96, 106.11 1.51" stroke="#000000" stroke-width="1" fill="none"></path></g><g transform="translate(673.375 258.9192764705722) rotate(0 52.41714622914799 0.08722594922176086)"><path d="M75.52 -10.78 C85.28 -7.52, 94.42 -3.6, 103.82 -0.33 M77.5 -8.97 C87.94 -5.08, 98.84 -2.27, 106.11 1.51" stroke="#000000" stroke-width="1" fill="none"></path></g></g><g transform="translate(793.14453125 235.55078125) rotate(0 60.5 20)"><text x="60.5" y="16" font-family="Cascadia, Segoe UI Emoji" font-size="16px" fill="#000000" text-anchor="middle" style="white-space: pre;" direction="ltr">오브젝트 파일</text><text x="60.5" y="36" font-family="Cascadia, Segoe UI Emoji" font-size="16px" fill="#000000" text-anchor="middle" style="white-space: pre;" direction="ltr">(*.o)</text></g><g stroke-linecap="round" transform="translate(1049.8515625 221.1796875) rotate(0 65.5 36)"><path d="M-0.27 -1.66 C43.61 1.46, 83.48 2.12, 129.82 -0.92 M0.77 -0.14 C37.91 0.07, 76.02 -0.01, 131.36 -0.35 M131.53 0.77 C130.17 19.55, 128.86 41.9, 132.3 71.86 M130.85 -0.45 C131.2 26.79, 130.32 52.69, 130.98 72.32 M131.5 72.17 C101.27 72.43, 70.94 72.74, 1.57 73.04 M131.92 72.65 C102.22 73.14, 73.04 73.18, 0.6 71.51 M-0.03 73.32 C1.6 57.25, 1.57 40.16, -0.17 -0.27 M-0.41 72.83 C-0.89 46.3, -1.26 22.34, 0.84 0.99" stroke="#000000" stroke-width="1" fill="none"></path></g><g transform="translate(1054.8515625 247.1796875) rotate(0 60.5 10)"><text x="60.5" y="16" font-family="Cascadia, Segoe UI Emoji" font-size="16px" fill="#000000" text-anchor="middle" style="white-space: pre;" direction="ltr">실행파일</text></g><g stroke-linecap="round"><g transform="translate(923.4183374244719 256.0335393066167) rotate(0 56.097099210564124 0.6166738238760843)"><path d="M-0.04 -0.59 C18.91 -0.47, 95.05 1.62, 113.71 1.82 M-1.52 1.72 C17.35 1.99, 93.92 0.02, 113.24 0.01" stroke="#000000" stroke-width="1" fill="none"></path></g><g transform="translate(923.4183374244719 256.0335393066167) rotate(0 56.097099210564124 0.6166738238760843)"><path d="M84.22 12.18 C94.56 6, 101.07 2.63, 112.99 -0.42 M84.63 11.63 C94.5 6.26, 104.27 3.43, 113.62 -0.22" stroke="#000000" stroke-width="1" fill="none"></path></g><g transform="translate(923.4183374244719 256.0335393066167) rotate(0 56.097099210564124 0.6166738238760843)"><path d="M83.92 -8.34 C94.55 -8.31, 101.15 -5.47, 112.99 -0.42 M84.33 -8.89 C94.22 -7.38, 104.1 -3.33, 113.62 -0.22" stroke="#000000" stroke-width="1" fill="none"></path></g></g><g stroke-linecap="round" transform="translate(786.61328125 10) rotate(0 65.5 36)"><path d="M-1.14 0.05 C49.45 -0.44, 99.08 0.89, 130.88 0.22 M0.12 0.24 C26.18 -0.49, 52 -1.42, 131.44 0.52 M131.51 -0.81 C132.19 17.78, 129.97 31.88, 131.92 73.37 M130.62 0.1 C129.98 23.15, 130.14 44.2, 130.05 72.16 M131.46 73.02 C91.13 74.26, 52.72 73.12, 1.1 70.75 M130.61 71.08 C81.31 71.89, 29.98 70.87, -0.91 71.77 M-1.02 71.72 C-0.08 50.83, -1.04 28.66, 0.74 1.75 M0.07 71.29 C0.64 44.29, 0.08 18.67, 0.83 0.29" stroke="#000000" stroke-width="1" fill="none"></path></g><g stroke-linecap="round"><g transform="translate(1107.3046875 45.18473224824294) rotate(0 0.5524266502186492 84.07185036662038)"><path d="M0.95 -0.25 C1 27.79, 1.18 140.46, 1.09 168.63 M-0.01 -1.42 C-0.1 26.68, 0.73 141.06, 0.71 169.56" stroke="#000000" stroke-width="1" fill="none"></path></g><g transform="translate(1107.3046875 45.18473224824294) rotate(0 0.5524266502186492 84.07185036662038)"><path d="M-10.06 143.22 C-7.66 152.39, -3.57 160.99, 2.12 170.38 M-10.29 141.2 C-7.1 148.2, -4.83 154.13, 1.59 169.63" stroke="#000000" stroke-width="1" fill="none"></path></g><g transform="translate(1107.3046875 45.18473224824294) rotate(0 0.5524266502186492 84.07185036662038)"><path d="M10.46 143.15 C5.3 152.5, 1.81 161.13, 2.12 170.38 M10.23 141.12 C8.61 148.27, 6.07 154.22, 1.59 169.63" stroke="#000000" stroke-width="1" fill="none"></path></g></g><g stroke-linecap="round"><g transform="translate(1106.9654060583562 44.64492830835283) rotate(0 -94.06373678397392 -0.09338666338473445)"><path d="M0.38 -1.04 C-31.11 -0.9, -156.22 0.45, -187.73 0.34 M-0.88 1.03 C-32.6 0.9, -157.02 -0.91, -188.5 -1.22" stroke="#000000" stroke-width="1" fill="none"></path></g></g><g stroke-linecap="round"><g transform="translate(1106.9654060583562 149.52774080835283) rotate(0 -94.39172251205889 -0.7516494878008899)"><path d="M0.68 -0.46 C-30.65 -0.64, -156.74 -0.88, -188.35 -1.1 M-0.42 -1.75 C-31.9 -1.75, -158.44 0.12, -189.46 0.25" stroke="#000000" stroke-width="1" fill="none"></path></g></g><g transform="translate(791.61328125 26) rotate(0 60.5 20)"><text x="60.5" y="16" font-family="Cascadia, Segoe UI Emoji" font-size="16px" fill="#000000" text-anchor="middle" style="white-space: pre;" direction="ltr">오브젝트 파일</text><text x="60.5" y="36" font-family="Cascadia, Segoe UI Emoji" font-size="16px" fill="#000000" text-anchor="middle" style="white-space: pre;" direction="ltr">(*.o)</text></g><g transform="translate(791.61328125 130.4140625) rotate(0 60.5 20)"><text x="60.5" y="16" font-family="Cascadia, Segoe UI Emoji" font-size="16px" fill="#000000" text-anchor="middle" style="white-space: pre;" direction="ltr">라이브러리</text><text x="60.5" y="36" font-family="Cascadia, Segoe UI Emoji" font-size="16px" fill="#000000" text-anchor="middle" style="white-space: pre;" direction="ltr">(*.a, *.so)</text></g><g transform="translate(148.17578125 319.04296875) rotate(0 65.5 20)"><text x="65.5" y="15" font-family="Cascadia, Segoe UI Emoji" font-size="16px" fill="#000000" text-anchor="middle" style="white-space: pre;" direction="ltr">Pre-processing</text><text x="65.5" y="35" font-family="Cascadia, Segoe UI Emoji" font-size="16px" fill="#000000" text-anchor="middle" style="white-space: pre;" direction="ltr">전처리</text></g><g transform="translate(428.64453125 324.1015625) rotate(0 51.5 20)"><text x="51.5" y="15" font-family="Cascadia, Segoe UI Emoji" font-size="16px" fill="#000000" text-anchor="middle" style="white-space: pre;" direction="ltr">Compilation</text><text x="51.5" y="35" font-family="Cascadia, Segoe UI Emoji" font-size="16px" fill="#000000" text-anchor="middle" style="white-space: pre;" direction="ltr">컴파일</text></g><g transform="translate(691.00390625 324.25) rotate(0 37.5 20)"><text x="37.5" y="15" font-family="Cascadia, Segoe UI Emoji" font-size="16px" fill="#000000" text-anchor="middle" style="white-space: pre;" direction="ltr">Assembly</text><text x="37.5" y="35" font-family="Cascadia, Segoe UI Emoji" font-size="16px" fill="#000000" text-anchor="middle" style="white-space: pre;" direction="ltr">어셈블리</text></g><g transform="translate(945.64453125 323.74609375) rotate(0 33 20)"><text x="33" y="15" font-family="Cascadia, Segoe UI Emoji" font-size="16px" fill="#000000" text-anchor="middle" style="white-space: pre;" direction="ltr">Linking</text><text x="33" y="35" font-family="Cascadia, Segoe UI Emoji" font-size="16px" fill="#000000" text-anchor="middle" style="white-space: pre;" direction="ltr">링킹</text></g></svg>