<svg version="1.1" xmlns="http://www.w3.org/2000/svg" viewBox="0 0 591.22265625 491.828125" width="591.22265625" height="491.828125">
  <!-- svg-source:excalidraw -->
  
  <defs>
    <style>
      @font-face {
        font-family: "Virgil";
        src: url("https://excalidraw.com/Virgil.woff2");
      }
      @font-face {
        font-family: "Cascadia";
        src: url("https://excalidraw.com/Cascadia.woff2");
      }
    </style>
  </defs>
  <g stroke-linecap="round" transform="translate(10 10) rotate(0 82.806640625 213.326171875)"><path d="M1.59 -0.68 C36.57 -2.2, 73.29 -0.48, 163.76 1.57 M0.43 0.21 C63.67 -0.33, 126.89 -1.89, 166.04 0.02 M165.57 -0.9 C166 118.79, 166.33 238.36, 165.3 427.37 M165.2 0.37 C164.84 165.71, 165.44 331.71, 165.47 426.36 M166.56 427.82 C101.73 426.32, 35.98 426.46, 1.78 427.51 M165.65 426.23 C127.8 426.99, 90.6 428.26, 0.56 427.46 M-0.44 425.98 C1.63 326.22, 2.36 225.75, 0.31 -0.6 M-0.48 426.94 C1.11 261.12, 1.12 95.8, -0.36 -0.18" stroke="#000000" stroke-width="1" fill="none"></path></g><g stroke-linecap="round"><g transform="translate(11.94921875 216.09765625) rotate(0 81.736328125 -0.12109375)"><path d="M0 0 C27.25 -0.04, 136.23 -0.2, 163.47 -0.24 M0 0 C27.25 -0.04, 136.23 -0.2, 163.47 -0.24" stroke="#000000" stroke-width="1" fill="none"></path></g></g><g stroke-linecap="round"><g transform="translate(11.51953125 330.80859375) rotate(0 81.736328125 -0.12109375)"><path d="M0 0 C27.25 -0.04, 136.23 -0.2, 163.47 -0.24 M0 0 C27.25 -0.04, 136.23 -0.2, 163.47 -0.24" stroke="#000000" stroke-width="1" fill="none"></path></g></g><g stroke-linecap="round"><g transform="translate(11.51953125 119.60546875) rotate(0 81.736328125 -0.12109375)"><path d="M0 0 C27.25 -0.04, 136.23 -0.2, 163.47 -0.24 M0 0 C27.25 -0.04, 136.23 -0.2, 163.47 -0.24" stroke="#000000" stroke-width="1" fill="none"></path></g></g><g transform="translate(69.38671875 372.375) rotate(0 24 12)"><text x="0" y="20" font-family="Cascadia, Segoe UI Emoji" font-size="20px" fill="#000000" text-anchor="start" style="white-space: pre;" direction="ltr">ptr1</text></g><g transform="translate(67.4609375 452.2578125) rotate(0 29 12.5)"><text x="0" y="18" font-family="Virgil, Segoe UI Emoji" font-size="20px" fill="#000000" text-anchor="start" style="white-space: pre;" direction="ltr">Stack</text></g><g transform="translate(523.09765625 453.92578125) rotate(0 23 12.5)"><text x="0" y="18" font-family="Virgil, Segoe UI Emoji" font-size="20px" fill="#000000" text-anchor="start" style="white-space: pre;" direction="ltr">Heap</text></g><g stroke-linecap="round" transform="translate(497.59765625 290.98828125) rotate(0 41.8125 42.078125)"><path d="M53.83 2.33 C60.63 3.94, 68.89 10.34, 73.91 16.05 C78.92 21.77, 82.97 29.14, 83.91 36.63 C84.85 44.11, 82.95 53.9, 79.54 60.98 C76.14 68.06, 69.93 75.36, 63.48 79.11 C57.03 82.85, 48.49 83.68, 40.84 83.45 C33.18 83.23, 23.69 81.88, 17.55 77.76 C11.4 73.64, 6.79 65.96, 3.97 58.72 C1.14 51.48, -0.49 41.93, 0.59 34.32 C1.67 26.7, 5.41 18.65, 10.45 13 C15.49 7.36, 22.86 1.95, 30.81 0.43 C38.76 -1.1, 52.92 2.74, 58.13 3.86 C63.34 4.98, 62.16 6.57, 62.07 7.15 M57.49 2.18 C64.25 4.03, 70.69 9.75, 74.82 16.07 C78.96 22.38, 81.79 32.27, 82.28 40.08 C82.78 47.89, 81.06 56.5, 77.78 62.92 C74.5 69.33, 68.97 75.29, 62.61 78.57 C56.25 81.84, 47.37 82.89, 39.6 82.57 C31.83 82.24, 22.13 80.88, 15.98 76.62 C9.84 72.35, 5.08 63.98, 2.71 56.98 C0.34 49.98, 0.16 42.08, 1.78 34.59 C3.41 27.1, 7.32 17.46, 12.45 12.05 C17.58 6.64, 25.42 3.87, 32.58 2.13 C39.74 0.39, 51.35 1.35, 55.42 1.6 C59.49 1.86, 56.99 3.06, 57.01 3.66" stroke="#000000" stroke-width="1" fill="none"></path></g><g stroke-linecap="round"><g transform="translate(178.1484375 266.3313302070417) rotate(0 153.16891610426944 31.434000430273613)"><path d="M0 0 C51.06 10.48, 255.28 52.39, 306.34 62.87 M0 0 C51.06 10.48, 255.28 52.39, 306.34 62.87" stroke="#000000" stroke-width="2" fill="none"></path></g><g transform="translate(178.1484375 266.3313302070417) rotate(0 153.16891610426944 31.434000430273613)"><path d="M276.66 67.25 C287.5 65.65, 298.34 64.05, 306.34 62.87 M276.66 67.25 C282.73 66.36, 288.8 65.46, 306.34 62.87" stroke="#000000" stroke-width="2" fill="none"></path></g><g transform="translate(178.1484375 266.3313302070417) rotate(0 153.16891610426944 31.434000430273613)"><path d="M280.79 47.15 C290.12 52.89, 299.45 58.63, 306.34 62.87 M280.79 47.15 C286.01 50.36, 291.24 53.58, 306.34 62.87" stroke="#000000" stroke-width="2" fill="none"></path></g></g><g stroke-linecap="round"><g transform="translate(176.734375 390.16978727280514) rotate(0 153.88131664966198 -20.13711958340963)"><path d="M-0.05 1.06 C51.23 -6.01, 256.11 -34.03, 307.81 -41.33" stroke="#c92a2a" stroke-width="4.5" fill="none" stroke-dasharray="8 12"></path></g><g transform="translate(176.734375 390.16978727280514) rotate(0 153.88131664966198 -20.13711958340963)"><path d="M283.07 -29.28 C290.41 -29.62, 296.18 -34.41, 309.56 -42.71" stroke="#c92a2a" stroke-width="4.5" fill="none"></path></g><g transform="translate(176.734375 390.16978727280514) rotate(0 153.88131664966198 -20.13711958340963)"><path d="M280.25 -49.61 C288.65 -43.69, 295.28 -42.23, 309.56 -42.71" stroke="#c92a2a" stroke-width="4.5" fill="none"></path></g></g><g stroke-linecap="round"><g transform="translate(324.61073553713675 443.9933341958872) rotate(7.5104163177985885 -4.404206345198986 -31.32145919588737)"><path d="M0 0 C-1.47 -10.44, -7.34 -52.2, -8.81 -62.64 M0 0 C-1.47 -10.44, -7.34 -52.2, -8.81 -62.64" stroke="#1864ab" stroke-width="2" fill="none"></path></g><g transform="translate(324.61073553713675 443.9933341958872) rotate(7.5104163177985885 -4.404206345198986 -31.32145919588737)"><path d="M5.28 -36.16 C-0.01 -46.11, -5.31 -56.06, -8.81 -62.64 M5.28 -36.16 C0.61 -44.93, -4.06 -53.71, -8.81 -62.64" stroke="#1864ab" stroke-width="2" fill="none"></path></g><g transform="translate(324.61073553713675 443.9933341958872) rotate(7.5104163177985885 -4.404206345198986 -31.32145919588737)"><path d="M-15.04 -33.3 C-12.7 -44.32, -10.36 -55.35, -8.81 -62.64 M-15.04 -33.3 C-12.98 -43.02, -10.91 -52.75, -8.81 -62.64" stroke="#1864ab" stroke-width="2" fill="none"></path></g></g><g transform="translate(230.23828125 449.828125) rotate(0 104 16)"><text x="0" y="26" font-family="Helvetica, Segoe UI Emoji" font-size="28px" fill="#1864ab" text-anchor="start" style="white-space: pre;" direction="ltr">Dangling Pointer</text></g></svg>