<svg version="1.1" xmlns="http://www.w3.org/2000/svg" viewBox="0 0 427.0898422733121 610.9140625" width="427.0898422733121" height="610.9140625">
  <!-- svg-source:excalidraw -->
  
  <defs>
    <style>
      @font-face {
        font-family: "Virgil";
        src: url("https://excalidraw.com/Virgil.woff2");
      }
      @font-face {
        font-family: "Cascadia";
        src: url("https://excalidraw.com/Cascadia.woff2");
      }
    </style>
  </defs>
  <g stroke-linecap="round" transform="translate(10 10) rotate(0 157.87677236533415 295.45703125)"><path d="M-0.42 -0.75 C74.67 0.19, 145.96 -0.78, 315.66 -1.21 M0.25 -0.23 C87.56 -1.39, 174.07 -1.91, 315.18 0.24 M315.37 0.53 C314.95 228.06, 314.32 456.28, 316.2 590.47 M316 0.06 C314.85 137.31, 314.39 273.73, 315.86 590.65 M316.83 592.24 C250.49 588.82, 185.58 588.5, -0.95 591.65 M316.15 591 C198.29 588.52, 80.6 589.11, 0.12 590.43 M-0.77 590.14 C-2.26 404.52, -1.81 217.32, -0.18 0.22 M0.08 590.63 C-0.89 440.55, -0.99 290.37, 0.04 -0.24" stroke="#000000" stroke-width="1" fill="none"></path></g><g transform="translate(135.62890625 21.35546875) rotate(0 48 18)"><text x="0" y="25" font-family="Virgil, Segoe UI Emoji" font-size="28px" fill="#000000" text-anchor="start" style="white-space: pre;" direction="ltr">Memory</text></g><g stroke-linecap="round" transform="translate(46.58984375 72.22265625) rotate(0 120.240234375 40.556640625)"><path d="M0 0 C50.47 0, 100.94 0, 240.48 0 M0 0 C75.61 0, 151.23 0, 240.48 0 M240.48 0 C240.48 22.13, 240.48 44.26, 240.48 81.11 M240.48 0 C240.48 26.66, 240.48 53.31, 240.48 81.11 M240.48 81.11 C144.87 81.11, 49.26 81.11, 0 81.11 M240.48 81.11 C166.47 81.11, 92.47 81.11, 0 81.11 M0 81.11 C0 50.79, 0 20.47, 0 0 M0 81.11 C0 53.69, 0 26.26, 0 0" stroke="#000000" stroke-width="1" fill="none"></path></g><g transform="translate(69.40625 100.1171875) rotate(0 97 13)"><text x="0" y="18" font-family="Virgil, Segoe UI Emoji" font-size="20px" fill="#000000" text-anchor="start" style="white-space: pre;" direction="ltr">실행할 프로그램의 코드</text></g><g stroke-linecap="round" transform="translate(48.27734375 169.27734375) rotate(0 120.0078125 33.435546875)"><path d="M0 0 C77.34 0, 154.68 0, 240.02 0 M0 0 C83.13 0, 166.26 0, 240.02 0 M240.02 0 C240.02 17.97, 240.02 35.94, 240.02 66.87 M240.02 0 C240.02 18.32, 240.02 36.63, 240.02 66.87 M240.02 66.87 C153.75 66.87, 67.49 66.87, 0 66.87 M240.02 66.87 C175.68 66.87, 111.34 66.87, 0 66.87 M0 66.87 C0 41, 0 15.13, 0 0 M0 66.87 C0 47.98, 0 29.09, 0 0" stroke="#000000" stroke-width="1" fill="none"></path></g><g transform="translate(53.27734375 177.712890625) rotate(0 115 25)"><text x="115" y="18" font-family="Virgil, Segoe UI Emoji" font-size="20px" fill="#000000" text-anchor="middle" style="white-space: pre;" direction="ltr">전역 변수</text><text x="115" y="43" font-family="Virgil, Segoe UI Emoji" font-size="20px" fill="#000000" text-anchor="middle" style="white-space: pre;" direction="ltr">정적 변수</text></g><g stroke-linecap="round" transform="translate(49.93359375 258.53109290529403) rotate(0 121 77.5)"><path d="M0 0 C69.43 0, 138.86 0, 242 0 M0 0 C58.44 0, 116.88 0, 242 0 M242 0 C242 55.02, 242 110.03, 242 155 M242 0 C242 41.11, 242 82.22, 242 155 M242 155 C188.49 155, 134.98 155, 0 155 M242 155 C170.22 155, 98.44 155, 0 155 M0 155 C0 95.46, 0 35.91, 0 0 M0 155 C0 123.46, 0 91.92, 0 0" stroke="#000000" stroke-width="1" fill="none"></path></g><g transform="translate(54.93359375 323.03109290529403) rotate(0 116 13)"><text x="116" y="18" font-family="Virgil, Segoe UI Emoji" font-size="20.3579295154185px" fill="#000000" text-anchor="middle" style="white-space: pre;" direction="ltr">사용자의 동적할당</text></g><g stroke-linecap="round" transform="translate(48.39453125 437.703125) rotate(0 121.5 73)"><path d="M0 0 C82.85 0, 165.7 0, 243 0 M0 0 C56.27 0, 112.54 0, 243 0 M243 0 C243 54.14, 243 108.28, 243 146 M243 0 C243 53.27, 243 106.55, 243 146 M243 146 C161.91 146, 80.81 146, 0 146 M243 146 C187.87 146, 132.73 146, 0 146 M0 146 C0 111.31, 0 76.62, 0 0 M0 146 C0 95.42, 0 44.84, 0 0" stroke="#000000" stroke-width="1" fill="none"></path></g><g transform="translate(53.39453125 485.703125) rotate(0 116.5 25)"><text x="116.5" y="18" font-family="Virgil, Segoe UI Emoji" font-size="20px" fill="#000000" text-anchor="middle" style="white-space: pre;" direction="ltr">지역 변수</text><text x="116.5" y="43" font-family="Virgil, Segoe UI Emoji" font-size="20px" fill="#000000" text-anchor="middle" style="white-space: pre;" direction="ltr">매개 변수</text></g><g stroke-linecap="round"><g transform="translate(10.883155425767427 437.221918348586) rotate(0 202.95395372199687 0)"><path d="M0 0 C67.65 0, 338.26 0, 405.91 0 M0 0 C67.65 0, 338.26 0, 405.91 0" stroke="#000000" stroke-width="1" fill="none"></path></g></g><g stroke-linecap="round"><g transform="translate(11.181934829318266 414.0212439007394) rotate(0 202.95395372199692 0)"><path d="M0 0 C67.65 0, 338.26 0, 405.91 0 M0 0 C67.65 0, 338.26 0, 405.91 0" stroke="#000000" stroke-width="1" fill="none"></path></g></g><g stroke-linecap="round"><g transform="translate(376.00925689471626 338.8547963146121) rotate(0 0.2842357843381933 31.863856063690008)"><path d="M0.55 -0.02 C0.8 10.49, 0.9 52.88, 1.18 63.65 M-0.61 -1.08 C-0.53 9.53, -0.37 53.61, 0.04 64.81" stroke="#000000" stroke-width="4" fill="none"></path></g><g transform="translate(376.00925689471626 338.8547963146121) rotate(0 0.2842357843381933 31.863856063690008)"><path d="M-10.76 36.18 C-8.84 45.62, -4.24 53.19, 0.48 66.37 M-10.57 37.22 C-6.95 45.59, -4.25 55, 0.18 65.48" stroke="#000000" stroke-width="4" fill="none"></path></g><g transform="translate(376.00925689471626 338.8547963146121) rotate(0 0.2842357843381933 31.863856063690008)"><path d="M9.76 35.82 C6.03 45.45, 4.97 53.12, 0.48 66.37 M9.95 36.85 C6.67 45.45, 2.48 54.99, 0.18 65.48" stroke="#000000" stroke-width="4" fill="none"></path></g></g><g stroke-linecap="round"><g transform="translate(378.5 508.80078125) rotate(0 0.27728995939719425 -31.095893449177936)"><path d="M-0.53 -0.33 C-0.69 -10.32, -0.15 -50.02, 0.07 -60.05 M1.4 -1.55 C0.99 -11.89, -0.69 -52.27, -0.84 -61.86" stroke="#000000" stroke-width="4" fill="none"></path></g><g transform="translate(378.5 508.80078125) rotate(0 0.27728995939719425 -31.095893449177936)"><path d="M9.74 -33.89 C6.98 -43.49, 1.96 -55.47, -0.36 -62.01 M10.05 -33.55 C6.88 -42.37, 3.3 -49.92, -0.38 -61.88" stroke="#000000" stroke-width="4" fill="none"></path></g><g transform="translate(378.5 508.80078125) rotate(0 0.27728995939719425 -31.095893449177936)"><path d="M-10.77 -33.25 C-5.6 -43.01, -2.7 -55.23, -0.36 -62.01 M-10.46 -32.91 C-7.57 -42.08, -5.09 -49.81, -0.38 -61.88" stroke="#000000" stroke-width="4" fill="none"></path></g></g><g transform="translate(352.37890625 302.5078125) rotate(0 23 12.5)"><text x="0" y="18" font-family="Virgil, Segoe UI Emoji" font-size="20px" fill="#000000" text-anchor="start" style="white-space: pre;" direction="ltr">Heap</text></g><g transform="translate(351.6796875 523.1171875) rotate(0 29 12.5)"><text x="0" y="18" font-family="Virgil, Segoe UI Emoji" font-size="20px" fill="#000000" text-anchor="start" style="white-space: pre;" direction="ltr">Stack</text></g><g transform="translate(349.27734375 187.74609375) rotate(0 27.5 12.5)"><text x="0" y="18" font-family="Virgil, Segoe UI Emoji" font-size="20px" fill="#000000" text-anchor="start" style="white-space: pre;" direction="ltr">Data</text></g><g transform="translate(347.9140625 99.63671875) rotate(0 23.5 12.5)"><text x="0" y="18" font-family="Virgil, Segoe UI Emoji" font-size="20px" fill="#000000" text-anchor="start" style="white-space: pre;" direction="ltr">Code</text></g></svg>