<svg version="1.1" xmlns="http://www.w3.org/2000/svg" viewBox="0 0 496.6796875 308.36328125" width="496.6796875" height="308.36328125">
  <!-- svg-source:excalidraw -->
  
  <defs>
    <style>
      @font-face {
        font-family: "Virgil";
        src: url("https://excalidraw.com/Virgil.woff2");
      }
      @font-face {
        font-family: "Cascadia";
        src: url("https://excalidraw.com/Cascadia.woff2");
      }
    </style>
  </defs>
  <g stroke-linecap="round" transform="translate(144.19921875 10) rotate(0 99.5 36.359375)"><path d="M0 0 C74.81 0, 149.62 0, 199 0 M0 0 C53.74 0, 107.49 0, 199 0 M199 0 C199 26.9, 199 53.79, 199 72.72 M199 0 C199 24.08, 199 48.16, 199 72.72 M199 72.72 C134.5 72.72, 70.01 72.72, 0 72.72 M199 72.72 C149.97 72.72, 100.94 72.72, 0 72.72 M0 72.72 C0 55.03, 0 37.34, 0 0 M0 72.72 C0 46.79, 0 20.86, 0 0" stroke="#000000" stroke-width="2" fill="none"></path></g><g transform="translate(149.19921875 34.359375) rotate(0 94.5 12)"><text x="94.5" y="20" font-family="Cascadia, Segoe UI Emoji" font-size="20px" fill="#000000" text-anchor="middle" style="white-space: pre;" direction="ltr">자료형 변환</text></g><g stroke-linecap="round"><g transform="translate(247.8828125 83.10546875) rotate(0 -83.306640625 48)"><path d="M0 0 C-27.77 16, -138.84 80, -166.61 96 M0 0 C-27.77 16, -138.84 80, -166.61 96" stroke="#000000" stroke-width="2" fill="none"></path></g></g><g stroke-linecap="round"><g transform="translate(248.58984375 82.50390625) rotate(0 82.75390625 48)"><path d="M0 0 C27.58 16, 137.92 80, 165.51 96 M0 0 C27.58 16, 137.92 80, 165.51 96" stroke="#000000" stroke-width="2" fill="none"></path></g></g><g stroke-linecap="round" transform="translate(10 179.51953125) rotate(0 72 36.466796875)"><path d="M0 0 C55.06 0, 110.13 0, 144 0 M0 0 C49.29 0, 98.57 0, 144 0 M144 0 C144 28.71, 144 57.41, 144 72.93 M144 0 C144 21.75, 144 43.5, 144 72.93 M144 72.93 C106.28 72.93, 68.57 72.93, 0 72.93 M144 72.93 C89.01 72.93, 34.03 72.93, 0 72.93 M0 72.93 C0 56.43, 0 39.93, 0 0 M0 72.93 C0 47.44, 0 21.94, 0 0" stroke="#000000" stroke-width="2" fill="none"></path></g><g stroke-linecap="round" transform="translate(342.6796875 179.7734375) rotate(0 72 36.466796875)"><path d="M0 0 C46.21 0, 92.43 0, 144 0 M0 0 C41.69 0, 83.39 0, 144 0 M144 0 C144 28.06, 144 56.11, 144 72.93 M144 0 C144 18.04, 144 36.09, 144 72.93 M144 72.93 C111.98 72.93, 79.95 72.93, 0 72.93 M144 72.93 C114.91 72.93, 85.82 72.93, 0 72.93 M0 72.93 C0 56.44, 0 39.94, 0 0 M0 72.93 C0 50.57, 0 28.21, 0 0" stroke="#000000" stroke-width="2" fill="none"></path></g><g transform="translate(15 203.986328125) rotate(0 67 12)"><text x="67" y="20" font-family="Cascadia, Segoe UI Emoji" font-size="20px" fill="#000000" text-anchor="middle" style="white-space: pre;" direction="ltr">형 확장</text></g><g transform="translate(347.6796875 204.240234375) rotate(0 67 12)"><text x="67" y="20" font-family="Cascadia, Segoe UI Emoji" font-size="20px" fill="#000000" text-anchor="middle" style="white-space: pre;" direction="ltr">형 축소</text></g><g transform="translate(10.76953125 271.109375) rotate(0 70 13)"><text x="0" y="20" font-family="Cascadia, Segoe UI Emoji" font-size="20px" fill="#000000" text-anchor="start" style="white-space: pre;" direction="ltr">= 암시적 형변환</text></g><g transform="translate(343.5390625 272.36328125) rotate(0 70 13)"><text x="0" y="20" font-family="Cascadia, Segoe UI Emoji" font-size="20px" fill="#000000" text-anchor="start" style="white-space: pre;" direction="ltr">= 명시적 형변환</text></g></svg>